<svg xmlns="http://www.w3.org/2000/svg" enable-background="new 0 0 32 32" viewBox="0 0 32 32"><path d="M27.90002,21.51996V2c0-0.53003-0.28003-1.02002-0.74005-1.29004C26.71002,0.44,26.15002,0.42999,25.67999,0.67999L12.35999,7.91998C11.88,8.17999,11.58002,8.69,11.58002,9.23999v12.31c-0.67999-0.33002-1.44-0.52002-2.23999-0.52002c-2.89001,0-5.24005,2.35004-5.24005,5.23004c0,2.88995,2.35004,5.23999,5.24005,5.23999c2.77997,0,5.04999-2.19,5.20996-4.92999c0.02002-0.10004,0.03003-0.20001,0.03003-0.31v-11.37l10.32001-5.61005V16.81c-0.68005-0.33002-1.44-0.52002-2.24005-0.52002c-2.88995,0-5.23999,2.35004-5.23999,5.22998c0,2.89001,2.35004,5.24005,5.23999,5.24005c2.78003,0,5.05005-2.19,5.21002-4.93005C27.89001,21.72998,27.90002,21.63,27.90002,21.51996z"/></svg>